HIERARCHY
ROOT Hips
{
	OFFSET 0.000000 0.000000 0.000000
	CHANNELS 6 Xposition Yposition Zposition Zrotation Yrotation Xrotation 
	JOINT LeftUpLeg_virtual
	{
		OFFSET 0.000000 0.000000 0.000000
		CHANNELS 3 Zrotation Yrotation Xrotation
		JOINT LeftUpLeg
		{
			OFFSET 10.205400 -3.823500 0.155100
			CHANNELS 3 Zrotation Yrotation Xrotation
			JOINT LeftLeg
			{
				OFFSET 0.708757 -12.982077 0.567790
				CHANNELS 3 Zrotation Yrotation Xrotation
				JOINT LeftFoot
				{
					OFFSET -0.708756 -10.717838 -2.184338
					CHANNELS 3 Zrotation Yrotation Xrotation
					JOINT LeftToeBase
					{
						OFFSET 0.108149 -7.191104 7.560241
						CHANNELS 3 Zrotation Yrotation Xrotation
						End Site
						{
							OFFSET 0.000000 0.000000 0.000000
						}
					}
				}
			}
		}
	}
	JOINT RightUpLeg_virtual
	{
		OFFSET 0.000000 0.000000 0.000000
		CHANNELS 3 Zrotation Yrotation Xrotation
		JOINT RightUpLeg
		{
			OFFSET -10.205400 -3.823500 0.005500
			CHANNELS 3 Zrotation Yrotation Xrotation
			JOINT RightLeg
			{
				OFFSET -0.708756 -12.982134 0.610632
				CHANNELS 3 Zrotation Yrotation Xrotation
				JOINT RightFoot
				{
					OFFSET 0.708754 -10.717769 -1.945823
					CHANNELS 3 Zrotation Yrotation Xrotation
					JOINT RightToeBase
					{
						OFFSET -0.108140 -7.191069 7.372968
						CHANNELS 3 Zrotation Yrotation Xrotation
						End Site
						{
							OFFSET 0.000000 0.000000 0.000000
						}
					}
				}
			}
		}
	}
	JOINT Spine_virtual
	{
		OFFSET 0.000000 0.000000 0.000000
		CHANNELS 3 Zrotation Yrotation Xrotation
		JOINT Spine
		{
			OFFSET 0.000000 6.876099 0.125700
			CHANNELS 3 Zrotation Yrotation Xrotation
			JOINT Spine1
			{
				OFFSET 0.000000 8.022060 0.146608
				CHANNELS 3 Zrotation Yrotation Xrotation
				JOINT Spine2
				{
					OFFSET 0.000000 9.168068 0.167552
					CHANNELS 3 Zrotation Yrotation Xrotation
					JOINT Neck_virtual
					{
						OFFSET 0.000000 0.000000 0.000000
						CHANNELS 3 Zrotation Yrotation Xrotation
						JOINT Neck
						{
							OFFSET 0.000000 10.314075 0.188496
							CHANNELS 3 Zrotation Yrotation Xrotation
							JOINT Head
							{
								OFFSET 0.000000 7.643700 -2.377400
								CHANNELS 3 Zrotation Yrotation Xrotation
								End Site
								{
									OFFSET 0.000000 0.000000 0.000000
								}
							}
						}
					}
					JOINT LeftShoulder_virtual
					{
						OFFSET 0.000000 0.000000 0.000000
						CHANNELS 3 Zrotation Yrotation Xrotation
						JOINT LeftShoulder
						{
							OFFSET 4.392200 8.824978 0.174984
							CHANNELS 3 Zrotation Yrotation Xrotation
							JOINT LeftArm
							{
								OFFSET 8.771219 -2.981674 -0.026999
								CHANNELS 3 Zrotation Yrotation Xrotation
								JOINT LeftForeArm
								{
									OFFSET 8.512804 0.000000 -0.000000
									CHANNELS 3 Zrotation Yrotation Xrotation
									JOINT LeftHand
									{
										OFFSET 18.484802 0.000000 -0.000000
										CHANNELS 3 Zrotation Yrotation Xrotation
										End Site
										{
											OFFSET 0.000000 0.000000 0.000000
										}
									}
								}
							}
						}
					}
					JOINT RightShoulder_virtual
					{
						OFFSET 0.000000 0.000000 0.000000
						CHANNELS 3 Zrotation Yrotation Xrotation
						JOINT RightShoulder
						{
							OFFSET -4.392200 8.824993 0.141379
							CHANNELS 3 Zrotation Yrotation Xrotation
							JOINT RightArm
							{
								OFFSET -8.771282 -2.981682 -0.094208
								CHANNELS 3 Zrotation Yrotation Xrotation
								JOINT RightForeArm
								{
									OFFSET -8.494598 0.000000 0.000000
									CHANNELS 3 Zrotation Yrotation Xrotation
									JOINT RightHand
									{
										OFFSET -18.483803 0.000000 0.000001
										CHANNELS 3 Zrotation Yrotation Xrotation
										End Site
										{
											OFFSET 0.000000 0.000000 0.000000
										}
									}
								}
							}
						}
					}
				}
			}
		}
	}
}
MOTION
Frames: 5
Frame Time: 0.033333
-3.042701 25.553265 -12.408533 179.854454 18.251801 179.928903 0.695237 -8.392663 -19.756891 -10.245571 1.656920 -60.513577 25.584840 -1.491022 51.145898 -7.059054 -9.099456 12.076592 0.000000 0.000000 0.000000 1.450101 -2.821245 -20.132042 6.876309 0.634788 -48.085440 -8.478896 -1.183259 37.422190 3.591145 2.111335 31.616690 0.000000 0.000000 0.000000 -4.935279 -2.448491 -17.530965 -2.731641 2.530179 -12.065482 1.293553 -1.169373 18.890881 0.028991 -0.055763 -0.009744 0.756493 -0.531628 22.860802 -0.885532 1.522907 18.562424 0.000000 0.000000 0.000000 2.914678 0.080717 18.484647 1.163547 -14.216424 3.023639 -66.940034 42.646151 23.695074 -3.471998 -61.043272 17.096969 0.000000 0.000000 0.000000 -0.597704 1.205627 17.582188 19.557115 22.732384 4.241873 50.542577 3.418629 20.756924 -125.042090 80.405417 -121.428852 0.000000 0.000000 0.000000 
-3.187214 25.479115 -12.615516 179.995074 16.949111 179.874849 0.743744 -7.671629 -19.225546 -9.115899 1.960550 -60.921927 24.778364 -2.499678 53.558751 -7.136350 -8.616044 12.298216 0.000000 0.000000 0.000000 0.955902 -2.140382 -19.483796 4.367778 3.391570 -49.436960 -7.741738 1.763279 40.417211 8.542908 4.602832 31.440559 0.000000 0.000000 0.000000 -4.591106 -1.925999 -17.482166 -2.073341 1.788648 -11.618401 1.050821 -1.179982 18.821947 -0.065378 0.000610 -0.013715 0.560529 -0.652523 22.780211 -1.043276 1.993636 19.081339 0.000000 0.000000 0.000000 2.747721 -0.000861 18.385353 0.109819 -13.697105 3.685821 -61.316937 43.136128 29.073609 -4.641725 -63.803625 17.992395 0.000000 0.000000 0.000000 -0.737378 1.144217 17.481212 19.374250 20.174016 3.376990 50.939892 -2.695586 14.817605 -138.539240 78.157581 -136.329879 0.000000 0.000000 0.000000 
-3.275192 25.403343 -12.899263 -179.842241 15.291527 -179.922974 0.860156 -7.143889 -18.851329 -8.204650 2.207834 -61.197115 23.860190 -3.382731 55.946998 -7.187174 -8.258910 12.435918 0.000000 0.000000 0.000000 0.277644 -1.439017 -19.121460 2.089243 5.680952 -50.535583 -6.486807 3.641977 44.091135 12.320843 6.923778 28.269579 0.000000 0.000000 0.000000 -4.356277 -1.332499 -17.654618 -1.552430 0.961541 -11.195693 0.854619 -1.284189 18.733563 -0.002514 -0.007129 0.015787 0.323951 -0.709864 22.698397 -1.115051 2.105440 19.638466 0.000000 0.000000 0.000000 2.494544 -0.137523 18.350025 -0.769429 -13.319700 4.301213 -55.940605 43.218316 34.223110 -5.769763 -66.284049 18.764452 0.000000 0.000000 0.000000 -1.008085 0.968945 17.424868 19.269526 17.680845 2.632584 52.262012 -9.296530 8.993313 -143.999622 76.422386 -143.036415 0.000000 0.000000 0.000000 
-3.323658 25.342146 -13.248761 -179.713738 13.699237 -179.814470 0.862774 -6.480367 -18.530310 -7.544362 2.360716 -61.350125 22.833582 -4.153535 58.036411 -7.097980 -7.980743 12.451627 0.000000 0.000000 0.000000 -0.276178 -0.816678 -18.509816 0.976887 7.063980 -51.899281 -5.930529 4.273167 47.884469 12.839682 7.665715 25.101401 0.000000 0.000000 0.000000 -4.209171 -0.546338 -17.870620 -1.177159 0.030854 -10.715357 0.702683 -1.481070 18.638268 0.014291 -0.082713 0.034210 0.113425 -0.801829 22.575090 -1.034833 2.190443 20.150066 0.000000 0.000000 0.000000 2.283341 -0.244875 18.244561 -1.476461 -12.888913 4.846526 -51.114182 43.084830 38.719325 -6.761719 -68.281907 19.345017 0.000000 0.000000 0.000000 -1.196690 0.900795 17.395242 19.239738 15.522076 2.104261 54.649382 -15.765687 3.282524 -144.739099 75.536735 -144.794601 0.000000 0.000000 0.000000 
-3.363610 25.298309 -13.598928 -179.696389 12.368903 -179.738108 0.751314 -5.653513 -18.265826 -7.070485 2.465111 -61.370793 21.821652 -4.588973 59.638289 -6.926097 -7.745312 12.300442 0.000000 0.000000 0.000000 -0.482713 -0.302042 -17.915907 -0.072519 8.276305 -53.407503 -5.533897 4.628585 51.013109 12.758628 7.834499 23.507810 0.000000 0.000000 0.000000 -4.026638 0.088009 -18.120512 -0.958864 -0.851372 -10.238772 0.563079 -1.603286 18.525136 -0.011442 -0.027600 0.015019 -0.046634 -0.929689 22.498862 -0.868264 2.142190 20.581617 0.000000 0.000000 0.000000 2.095708 -0.401491 18.171759 -2.123954 -12.460105 5.322433 -47.031569 42.815488 42.281231 -7.317605 -69.878415 19.458145 0.000000 0.000000 0.000000 -1.383242 0.774887 17.463467 19.182315 13.518876 1.544934 57.886393 -21.882804 -1.939603 -142.607629 75.693222 -143.391530 0.000000 0.000000 0.000000 
